<?xml version="1.0" encoding="UTF-8" standalone="no"?>
<!DOCTYPE svg PUBLIC "-//W3C//DTD SVG 1.1//EN"
 "http://www.w3.org/Graphics/SVG/1.1/DTD/svg11.dtd">
<!-- Generated by graphviz version 8.0.5 (20230430.1635)
 -->
<!-- Title: finite_state_machine Pages: 1 -->
<svg width="209pt" height="52pt"
 viewBox="0.00 0.00 208.75 52.00" xmlns="http://www.w3.org/2000/svg" xmlns:xlink="http://www.w3.org/1999/xlink">
<g id="graph0" class="graph" transform="scale(1 1) rotate(0) translate(4 48)">
<title>finite_state_machine</title>
<polygon fill="white" stroke="none" points="-4,4 -4,-48 204.75,-48 204.75,4 -4,4"/>
<!-- 2 -->
<g id="node1" class="node">
<title>2</title>
<ellipse fill="none" stroke="black" cx="178.75" cy="-22" rx="18" ry="18"/>
<ellipse fill="none" stroke="black" cx="178.75" cy="-22" rx="22" ry="22"/>
<text text-anchor="middle" x="178.75" y="-16.95" font-family="Times,serif" font-size="14.00">2</text>
</g>
<!-- 0 -->
<g id="node2" class="node">
<title>0</title>
<ellipse fill="none" stroke="black" cx="18" cy="-22" rx="18" ry="18"/>
<text text-anchor="middle" x="18" y="-16.95" font-family="Times,serif" font-size="14.00">0</text>
</g>
<!-- 1 -->
<g id="node3" class="node">
<title>1</title>
<ellipse fill="none" stroke="black" cx="96" cy="-22" rx="18" ry="18"/>
<text text-anchor="middle" x="96" y="-16.95" font-family="Times,serif" font-size="14.00">1</text>
</g>
<!-- 0&#45;&gt;1 -->
<g id="edge1" class="edge">
<title>0&#45;&gt;1</title>
<path fill="none" stroke="black" d="M36.25,-22C45.22,-22 56.42,-22 66.63,-22"/>
<polygon fill="black" stroke="black" points="66.56,-25.5 76.56,-22 66.56,-18.5 66.56,-25.5"/>
<text text-anchor="middle" x="57" y="-25.2" font-family="Times,serif" font-size="14.00">a</text>
</g>
<!-- 1&#45;&gt;2 -->
<g id="edge2" class="edge">
<title>1&#45;&gt;2</title>
<path fill="none" stroke="black" d="M114.12,-22C123.26,-22 134.82,-22 145.56,-22"/>
<polygon fill="black" stroke="black" points="145.33,-25.5 155.33,-22 145.33,-18.5 145.33,-25.5"/>
<text text-anchor="middle" x="135.38" y="-25.2" font-family="Times,serif" font-size="14.00">b</text>
</g>
</g>
</svg>
