<?xml version="1.0" encoding="UTF-8" standalone="no"?>
<!DOCTYPE svg PUBLIC "-//W3C//DTD SVG 1.1//EN"
 "http://www.w3.org/Graphics/SVG/1.1/DTD/svg11.dtd">
<!-- Generated by graphviz version 8.0.5 (20230430.1635)
 -->
<!-- Title: finite_state_machine Pages: 1 -->
<svg width="209pt" height="102pt"
 viewBox="0.00 0.00 208.75 102.00" xmlns="http://www.w3.org/2000/svg" xmlns:xlink="http://www.w3.org/1999/xlink">
<g id="graph0" class="graph" transform="scale(1 1) rotate(0) translate(4 98)">
<title>finite_state_machine</title>
<polygon fill="white" stroke="none" points="-4,4 -4,-98 204.75,-98 204.75,4 -4,4"/>
<!-- 3 -->
<g id="node1" class="node">
<title>3</title>
<ellipse fill="none" stroke="black" cx="178.75" cy="-22" rx="18" ry="18"/>
<ellipse fill="none" stroke="black" cx="178.75" cy="-22" rx="22" ry="22"/>
<text text-anchor="middle" x="178.75" y="-16.95" font-family="Times,serif" font-size="14.00">3</text>
</g>
<!-- 0 -->
<g id="node2" class="node">
<title>0</title>
<ellipse fill="none" stroke="black" cx="18" cy="-49" rx="18" ry="18"/>
<text text-anchor="middle" x="18" y="-43.95" font-family="Times,serif" font-size="14.00">0</text>
</g>
<!-- 1 -->
<g id="node3" class="node">
<title>1</title>
<ellipse fill="none" stroke="black" cx="96" cy="-76" rx="18" ry="18"/>
<text text-anchor="middle" x="96" y="-70.95" font-family="Times,serif" font-size="14.00">1</text>
</g>
<!-- 0&#45;&gt;1 -->
<g id="edge1" class="edge">
<title>0&#45;&gt;1</title>
<path fill="none" stroke="black" d="M35.49,-54.86C45.05,-58.26 57.32,-62.61 68.23,-66.49"/>
<polygon fill="black" stroke="black" points="66.95,-70.1 77.54,-70.15 69.29,-63.51 66.95,-70.1"/>
<text text-anchor="middle" x="57" y="-66.2" font-family="Times,serif" font-size="14.00">a</text>
</g>
<!-- 2 -->
<g id="node4" class="node">
<title>2</title>
<ellipse fill="none" stroke="black" cx="96" cy="-22" rx="18" ry="18"/>
<text text-anchor="middle" x="96" y="-16.95" font-family="Times,serif" font-size="14.00">2</text>
</g>
<!-- 0&#45;&gt;2 -->
<g id="edge2" class="edge">
<title>0&#45;&gt;2</title>
<path fill="none" stroke="black" d="M35.49,-43.14C45.05,-39.74 57.32,-35.39 68.23,-31.51"/>
<polygon fill="black" stroke="black" points="69.29,-34.49 77.54,-27.85 66.95,-27.9 69.29,-34.49"/>
<text text-anchor="middle" x="57" y="-39.2" font-family="Times,serif" font-size="14.00">a</text>
</g>
<!-- 2&#45;&gt;3 -->
<g id="edge3" class="edge">
<title>2&#45;&gt;3</title>
<path fill="none" stroke="black" d="M114.12,-22C123.26,-22 134.82,-22 145.56,-22"/>
<polygon fill="black" stroke="black" points="145.33,-25.5 155.33,-22 145.33,-18.5 145.33,-25.5"/>
<text text-anchor="middle" x="135.38" y="-25.2" font-family="Times,serif" font-size="14.00">b</text>
</g>
</g>
</svg>
