<?xml version="1.0" encoding="UTF-8" standalone="no"?>
<!DOCTYPE svg PUBLIC "-//W3C//DTD SVG 1.1//EN"
 "http://www.w3.org/Graphics/SVG/1.1/DTD/svg11.dtd">
<!-- Generated by graphviz version 8.0.5 (20230430.1635)
 -->
<!-- Title: finite_state_machine Pages: 1 -->
<svg width="131pt" height="114pt"
 viewBox="0.00 0.00 130.75 114.00" xmlns="http://www.w3.org/2000/svg" xmlns:xlink="http://www.w3.org/1999/xlink">
<g id="graph0" class="graph" transform="scale(1 1) rotate(0) translate(4 110)">
<title>finite_state_machine</title>
<polygon fill="white" stroke="none" points="-4,4 -4,-110 126.75,-110 126.75,4 -4,4"/>
<!-- 1 -->
<g id="node1" class="node">
<title>1</title>
<ellipse fill="none" stroke="black" cx="100.75" cy="-84" rx="18" ry="18"/>
<ellipse fill="none" stroke="black" cx="100.75" cy="-84" rx="22" ry="22"/>
<text text-anchor="middle" x="100.75" y="-78.95" font-family="Times,serif" font-size="14.00">1</text>
</g>
<!-- 2 -->
<g id="node2" class="node">
<title>2</title>
<ellipse fill="none" stroke="black" cx="100.75" cy="-22" rx="18" ry="18"/>
<ellipse fill="none" stroke="black" cx="100.75" cy="-22" rx="22" ry="22"/>
<text text-anchor="middle" x="100.75" y="-16.95" font-family="Times,serif" font-size="14.00">2</text>
</g>
<!-- 0 -->
<g id="node3" class="node">
<title>0</title>
<ellipse fill="none" stroke="black" cx="18" cy="-53" rx="18" ry="18"/>
<text text-anchor="middle" x="18" y="-47.95" font-family="Times,serif" font-size="14.00">0</text>
</g>
<!-- 0&#45;&gt;1 -->
<g id="edge1" class="edge">
<title>0&#45;&gt;1</title>
<path fill="none" stroke="black" d="M35.34,-59.27C45.15,-63.04 57.93,-67.95 69.53,-72.4"/>
<polygon fill="black" stroke="black" points="68.12,-75.99 78.71,-76.31 70.63,-69.46 68.12,-75.99"/>
<text text-anchor="middle" x="57.38" y="-71.2" font-family="Times,serif" font-size="14.00">a</text>
</g>
<!-- 0&#45;&gt;2 -->
<g id="edge2" class="edge">
<title>0&#45;&gt;2</title>
<path fill="none" stroke="black" d="M35.34,-46.73C45.15,-42.96 57.93,-38.05 69.53,-33.6"/>
<polygon fill="black" stroke="black" points="70.63,-36.54 78.71,-29.69 68.12,-30.01 70.63,-36.54"/>
<text text-anchor="middle" x="57.38" y="-43.2" font-family="Times,serif" font-size="14.00">b</text>
</g>
</g>
</svg>
