<?xml version="1.0" encoding="UTF-8" standalone="no"?>
<!DOCTYPE svg PUBLIC "-//W3C//DTD SVG 1.1//EN"
 "http://www.w3.org/Graphics/SVG/1.1/DTD/svg11.dtd">
<!-- Generated by graphviz version 8.0.5 (20230430.1635)
 -->
<!-- Title: finite_state_machine Pages: 1 -->
<svg width="130pt" height="87pt"
 viewBox="0.00 0.00 130.00 86.50" xmlns="http://www.w3.org/2000/svg" xmlns:xlink="http://www.w3.org/1999/xlink">
<g id="graph0" class="graph" transform="scale(1 1) rotate(0) translate(4 82.5)">
<title>finite_state_machine</title>
<polygon fill="white" stroke="none" points="-4,4 -4,-82.5 126,-82.5 126,4 -4,4"/>
<!-- 1 -->
<g id="node1" class="node">
<title>1</title>
<ellipse fill="none" stroke="black" cx="100" cy="-22" rx="18" ry="18"/>
<ellipse fill="none" stroke="black" cx="100" cy="-22" rx="22" ry="22"/>
<text text-anchor="middle" x="100" y="-16.95" font-family="Times,serif" font-size="14.00">1</text>
</g>
<!-- 1&#45;&gt;1 -->
<g id="edge2" class="edge">
<title>1&#45;&gt;1</title>
<path fill="none" stroke="black" d="M92.64,-53.82C93.76,-58.69 96.21,-62 100,-62 106.21,-62 108.84,-53.09 107.87,-42.99"/>
<polygon fill="black" stroke="black" points="96.1,-53.82 92.13,-43.99 89.11,-54.14 96.1,-53.82"/>
<text text-anchor="middle" x="100" y="-65.2" font-family="Times,serif" font-size="14.00">a</text>
</g>
<!-- 0 -->
<g id="node2" class="node">
<title>0</title>
<ellipse fill="none" stroke="black" cx="18" cy="-22" rx="18" ry="18"/>
<text text-anchor="middle" x="18" y="-16.95" font-family="Times,serif" font-size="14.00">0</text>
</g>
<!-- 0&#45;&gt;1 -->
<g id="edge1" class="edge">
<title>0&#45;&gt;1</title>
<path fill="none" stroke="black" d="M36.36,-22C45.27,-22 56.41,-22 66.82,-22"/>
<polygon fill="black" stroke="black" points="66.69,-25.5 76.69,-22 66.69,-18.5 66.69,-25.5"/>
<text text-anchor="middle" x="57" y="-25.2" font-family="Times,serif" font-size="14.00">a</text>
</g>
</g>
</svg>
