<?xml version="1.0" encoding="UTF-8" standalone="no"?>
<!DOCTYPE svg PUBLIC "-//W3C//DTD SVG 1.1//EN"
 "http://www.w3.org/Graphics/SVG/1.1/DTD/svg11.dtd">
<!-- Generated by graphviz version 8.0.5 (20230430.1635)
 -->
<!-- Title: finite_state_machine Pages: 1 -->
<svg width="130pt" height="87pt"
 viewBox="0.00 0.00 130.00 86.50" xmlns="http://www.w3.org/2000/svg" xmlns:xlink="http://www.w3.org/1999/xlink">
<g id="graph0" class="graph" transform="scale(1 1) rotate(0) translate(4 82.5)">
<title>finite_state_machine</title>
<polygon fill="white" stroke="none" points="-4,4 -4,-82.5 126,-82.5 126,4 -4,4"/>
<!-- 0 -->
<g id="node1" class="node">
<title>0</title>
<ellipse fill="none" stroke="black" cx="22" cy="-22" rx="18" ry="18"/>
<ellipse fill="none" stroke="black" cx="22" cy="-22" rx="22" ry="22"/>
<text text-anchor="middle" x="22" y="-16.95" font-family="Times,serif" font-size="14.00">0</text>
</g>
<!-- 0&#45;&gt;0 -->
<g id="edge2" class="edge">
<title>0&#45;&gt;0</title>
<path fill="none" stroke="black" d="M14.64,-53.82C15.76,-58.69 18.21,-62 22,-62 28.21,-62 30.84,-53.09 29.87,-42.99"/>
<polygon fill="black" stroke="black" points="18.1,-53.82 14.13,-43.99 11.11,-54.14 18.1,-53.82"/>
<text text-anchor="middle" x="22" y="-65.2" font-family="Times,serif" font-size="14.00">a</text>
</g>
<!-- 1 -->
<g id="node2" class="node">
<title>1</title>
<ellipse fill="none" stroke="black" cx="104" cy="-22" rx="18" ry="18"/>
<text text-anchor="middle" x="104" y="-16.95" font-family="Times,serif" font-size="14.00">1</text>
</g>
<!-- 0&#45;&gt;1 -->
<g id="edge1" class="edge">
<title>0&#45;&gt;1</title>
<path fill="none" stroke="black" d="M44.44,-22C53.69,-22 64.64,-22 74.55,-22"/>
<polygon fill="black" stroke="black" points="74.55,-25.5 84.55,-22 74.55,-18.5 74.55,-25.5"/>
<text text-anchor="middle" x="65" y="-25.2" font-family="Times,serif" font-size="14.00">a</text>
</g>
</g>
</svg>
